<svg width="425" height="227" viewBox="0 0 425 227" fill="none" xmlns="http://www.w3.org/2000/svg">
<path d="M43.6231 192V88.325H83.0631C111.773 88.325 129.173 106.885 129.173 140.235C129.173 173.585 112.063 192 83.3531 192H43.6231ZM59.5731 178.225H82.3381C106.408 178.225 112.643 160.245 112.643 140.235C112.643 120.225 106.408 102.1 82.3381 102.1H59.5731V178.225Z" fill="white"/>
<path d="M129.173 140.235C129.173 107.406 112.313 88.9088 84.4004 88.3389L83.0635 88.3252V86.3252C97.8656 86.3253 109.979 91.1241 118.37 100.435C126.736 109.717 131.173 123.231 131.173 140.235C131.173 157.232 126.812 170.71 118.519 179.959C110.197 189.239 98.1521 194 83.3535 194H41.623V86.3252H83.0635V88.3252H43.623V192H83.3535L84.6904 191.986C112.151 191.43 128.644 173.642 129.16 141.787L129.173 140.235ZM110.644 140.235C110.644 130.371 109.094 121.303 104.84 114.753C100.687 108.358 93.7837 104.1 82.3379 104.1H61.5732V176.225H82.3379V178.225H59.5732V102.1H82.3379C106.408 102.1 112.644 120.225 112.644 140.235L112.639 141.172C112.444 160.803 106.032 178.225 82.3379 178.225V176.225C93.7901 176.225 100.692 171.997 104.842 165.641C109.093 159.129 110.644 150.1 110.644 140.235Z" fill="#E66A1E"/>
<path d="M145.623 192V88.325H161.573V178.225H214.063V192H145.623Z" fill="white"/>
<path d="M214.063 178.225H161.573V88.3252H145.623V192H214.063V178.225ZM163.573 176.225H216.063V194H143.623V86.3252H163.573V176.225Z" fill="#E66A1E"/>
<path d="M219.261 77.25H180.578L128.328 32L76.0781 77.25H37.3955L128.328 0L219.261 77.25Z" fill="#FBFBFB"/>
<path d="M219.261 77.25H180.578L128.328 32L76.0781 77.25H37.3955L128.328 0L219.261 77.25ZM42.8389 75.25H75.332L128.328 29.3545L181.324 75.25H213.817L128.328 2.62402L42.8389 75.25Z" fill="#E66A1E"/>
<path d="M37.3281 202H219.328V227H37.3281V202Z" fill="#E66A1E"/>
<path d="M23.7761 11.3428C23.7761 17.4548 20.3841 20.1107 15.7121 20.1107H0.44812L0.44812 17.2308H15.7121C19.4241 17.2308 21.2161 15.3108 21.2161 11.3428C21.2161 7.37476 19.4241 5.45476 15.7121 5.45476H0.44812L0.44812 2.57475H15.7121C20.3841 2.57475 23.7761 5.23076 23.7761 11.3428Z" fill="#E66A1E"/>
<path d="M23.3281 43.726L0.44812 35.278L0.44812 32.046L23.3281 23.534V26.638L17.6001 28.654V38.734L23.3281 40.75V43.726ZM15.0401 37.774V29.582L3.10412 33.646V33.71L15.0401 37.774Z" fill="#E66A1E"/>
<path d="M23.3281 63.682H0.44812L0.44812 54.466C0.44812 49.794 2.65612 46.978 6.20812 46.978C9.02412 46.978 10.3041 48.642 10.9441 50.53H11.0081C11.4241 48.13 13.2481 46.082 16.6721 46.082C20.8961 46.082 23.3281 49.09 23.3281 53.826V63.682ZM20.7681 60.802V53.666C20.7681 49.986 18.8161 49.09 16.6721 49.09C14.2081 49.09 12.5761 50.626 12.5761 53.026V60.802H20.7681ZM10.0161 60.802V54.146C10.0161 50.882 8.60812 49.986 6.52812 49.986C4.44812 49.986 3.00812 51.202 3.00812 53.826L3.00812 60.802H10.0161Z" fill="#E66A1E"/>
<path d="M23.3281 87.907H0.44812L0.44812 84.387L19.2321 72.963V72.899H0.44812L0.44812 70.019H23.3281V73.539L4.54412 84.963V85.027H23.3281V87.907Z" fill="#E66A1E"/>
<path d="M23.3281 109.101H0.44812L0.44812 93.2608H3.00812L3.00812 106.221H10.2081V94.7968H12.7681V106.221H20.7681V92.8768H23.3281V109.101Z" fill="#E66A1E"/>
<path d="M23.3281 131.138H0.44812L0.44812 128.258H12.5441L0.44812 116.642L0.44812 113.378L9.82412 122.402L23.3281 112.61V115.97L11.7441 124.258L15.8721 128.258H23.3281V131.138Z" fill="#E66A1E"/>
<path d="M23.7761 145.798C23.7761 152.07 18.7841 156.39 11.8721 156.39C4.99212 156.39 0.00012207 152.07 0.00012207 145.798C0.00012207 140.198 3.64812 136.614 8.00012 136.07V139.078C5.82412 139.494 2.56012 141.03 2.56012 145.798C2.56012 151.238 7.26412 153.382 11.8721 153.382C16.5121 153.382 21.2161 151.238 21.2161 145.798C21.2161 140.998 17.9521 139.27 15.0721 139.078V136.07C20.1281 136.582 23.7761 140.166 23.7761 145.798Z" fill="#E66A1E"/>
<path d="M23.7761 171.634C23.7761 178.354 18.7521 182.834 11.8721 182.834C4.99212 182.834 0.00012207 178.354 0.00012207 171.634C0.00012207 164.914 4.99212 160.434 11.8721 160.434C18.7521 160.434 23.7761 164.914 23.7761 171.634ZM11.8721 179.826C16.8001 179.826 21.2161 177.394 21.2161 171.634C21.2161 165.874 16.8001 163.442 11.8721 163.442C6.94412 163.442 2.56012 165.874 2.56012 171.634C2.56012 177.394 6.94412 179.826 11.8721 179.826Z" fill="#E66A1E"/>
<path d="M23.3281 203.969H0.44812L0.44812 194.785C0.44812 189.761 2.81612 187.137 7.04012 187.137C9.88812 187.137 12.0641 188.897 12.6401 191.297H12.7041C13.6961 186.145 22.7521 188.033 23.1361 186.817H23.3281V189.921C22.3681 190.913 14.0801 188.737 14.0801 194.529V201.089H23.3281V203.969ZM11.5201 201.089V195.457C11.5201 191.969 9.95212 190.017 7.10412 190.017C4.48012 190.017 3.00812 191.489 3.00812 195.361L3.00812 201.089H11.5201Z" fill="#E66A1E"/>
<path d="M23.3281 218.904H3.00812V226.52H0.44812L0.44812 208.408H3.00812V216.024H23.3281V218.904Z" fill="#E66A1E"/>
<path d="M407.227 227V204.12H416.411C421.435 204.12 424.059 206.488 424.059 210.712C424.059 213.56 422.299 215.736 419.899 216.312V216.376C425.051 217.368 423.163 226.424 424.379 226.808V227H421.275C420.283 226.04 422.459 217.752 416.667 217.752H410.107V227H407.227ZM410.107 215.192H415.739C419.227 215.192 421.179 213.624 421.179 210.776C421.179 208.152 419.707 206.68 415.835 206.68H410.107V215.192Z" fill="#E66A1E"/>
<path d="M386.034 227V204.12H401.874V206.68H388.914V213.88H400.338V216.44H388.914V224.44H402.258V227H386.034Z" fill="#E66A1E"/>
<path d="M370.58 227V217.624L362.26 204.12H365.364L371.988 215.416H372.052L378.708 204.12H381.812L373.46 217.624V227H370.58Z" fill="#E66A1E"/>
<path d="M343.459 227V204.12H359.299V206.68H346.339V213.88H357.763V216.44H346.339V224.44H359.683V227H343.459Z" fill="#E66A1E"/>
<path d="M324.14 227V204.12H327.02V224.44H339.02V227H324.14Z" fill="#E66A1E"/>
<path d="M285.934 227V204.12H288.814V216.216L300.43 204.12H303.694L294.67 213.496L304.462 227H301.102L292.814 215.416L288.814 219.544V227H285.934Z" fill="#E66A1E"/>
<path d="M263.646 227V204.12H272.83C277.854 204.12 280.478 206.488 280.478 210.712C280.478 213.56 278.718 215.736 276.318 216.312V216.376C281.47 217.368 279.582 226.424 280.798 226.808V227H277.694C276.702 226.04 278.878 217.752 273.086 217.752H266.526V227H263.646ZM266.526 215.192H272.158C275.646 215.192 277.598 213.624 277.598 210.776C277.598 208.152 276.126 206.68 272.254 206.68H266.526V215.192Z" fill="#E66A1E"/>
<path d="M254.421 227V204.12H257.301V227H254.421Z" fill="#E66A1E"/>
<path d="M230.696 227V204.12H238.984C245.288 204.12 249.16 208.216 249.16 215.576C249.16 222.936 245.288 227 238.984 227H230.696ZM233.576 224.44H238.984C244.808 224.44 246.152 220.056 246.152 215.576C246.152 211.096 244.808 206.68 238.984 206.68H233.576V224.44Z" fill="#E66A1E"/>
</svg>
